<svg xmlns="http://www.w3.org/2000/svg" viewBox="0 0 658.5 158"><defs><style>.cls-1,.cls-4{fill:#fff;}.cls-1{stroke:#252525;stroke-miterlimit:10;stroke-width:3px;}.cls-2{fill:#2c2c2c;}.cls-3{fill:#002c5f;}</style></defs><title>top-ui-ux-companies-by-topdevelopers</title><g id="Layer_2" data-name="Layer 2"><g id="Layer_2-2" data-name="Layer 2"><rect class="cls-1" x="1.5" y="1.5" width="655.5" height="155" rx="11.25" ry="11.25"/><path class="cls-2" d="M151,29.75h37.86v6.36H173V82.64h-6.65V36.11H151Z"/><path class="cls-2" d="M200.42,43.91c13.3,0,17.34,4.91,17.34,20.23,0,14.16-4,19.08-17.34,19.08S183.08,78,183.08,64.15C183.08,48.25,187.42,43.91,200.42,43.91Zm0,32.95c7.23,0,10.69-.87,10.69-13,0-13-2.6-13.87-10.69-13.87-7.51,0-10.69,1.16-10.69,13.87C189.73,76,193.2,76.86,200.42,76.86Z"/><path class="cls-2" d="M225.86,44.2h5.2l1.45,4c2-1.45,9-4.62,13.58-4.62,10.41,0,12.72,9.83,12.72,19.37,0,10.12-1.73,19.94-12.72,19.94A39.66,39.66,0,0,1,232.22,80V98.72h-6.65V44.2Zm19.65,32.95c4.34,0,6.65-2.6,6.65-13.87,0-9.25-2.31-13.3-6.65-13.3a28.76,28.76,0,0,0-13,3.18V75.42A45.69,45.69,0,0,0,245.51,77.15Z"/><path class="cls-3" d="M268.64,29.75h20.81c16.19,0,19.08,15.32,19.08,26.59,0,13-5.2,26.3-19.08,26.3H268.64ZM289.16,76c9,0,12.43-9,12.43-19.94,0-15-4.62-20.23-12.43-20.23H275.28V76Z"/><path class="cls-3" d="M331.07,43.91c9.83,0,15.32.87,15.32,13.58,0,5.78-3.18,9-10.41,9H321c0,8.38,2,10.12,7.51,10.12,6.65,0,11.85,0,17.34-.87v4.91c-5.78,1.73-12.72,2-18.79,2-9.83,0-12.72-4.91-12.72-19.65C314,46.23,318.93,43.91,331.07,43.91ZM335.4,61q4.34,0,4.34-3.47c0-6.94-1.16-7.51-8.38-7.51C323.84,50,321,50,321,61Z"/><path class="cls-3" d="M357.95,44.2l11.27,29.48L380.49,44.2h7.23L372.4,82.64h-6.94L350.72,44.2Z"/><path class="cls-3" d="M408.82,43.91c9.83,0,15.32.87,15.32,13.58,0,5.78-3.18,9-10.41,9H398.41c0,8.38,2,10.12,7.51,10.12,6.65,0,11.85,0,17.34-.87v4.91c-5.78,1.73-12.72,2-18.79,2-9.83,0-12.72-4.91-12.72-19.65C391.77,46.23,396.68,43.91,408.82,43.91ZM413.15,61q4.34,0,4.34-3.47c0-6.94-1.16-7.51-8.38-7.51-7.51,0-10.41,0-10.41,11Z"/><path class="cls-3" d="M431.65,26h6.65V68.48c0,6.07,1.73,7.51,4,8.09,0,0,5.49,1.45,6.07,1.45v4.62h-6.94c-5.78,0-9.83-3.47-9.83-13.58V26Z"/><path class="cls-3" d="M468.36,43.91c13.3,0,17.34,4.91,17.34,20.23,0,14.16-4,19.08-17.34,19.08S451,78,451,64.15C451,48.25,455.64,43.91,468.36,43.91Zm0,32.95c7.23,0,10.69-.87,10.69-13,0-13-2.6-13.87-10.69-13.87-7.51,0-10.69,1.16-10.69,13.87C458,76,461.42,76.86,468.36,76.86Z"/><path class="cls-3" d="M494.08,44.2h5.2l1.45,4c2-1.45,9-4.62,13.58-4.62C524.72,43.62,527,53.45,527,63c0,10.12-1.73,19.94-12.72,19.94A39.66,39.66,0,0,1,500.44,80v21.68h-6.65V44.2Zm19.37,32.95c4.34,0,6.65-2.6,6.65-13.87,0-9.25-2.31-13.3-6.65-13.3a28.76,28.76,0,0,0-13,3.18V75.42A48.68,48.68,0,0,0,513.45,77.15Z"/><path class="cls-3" d="M551,43.91c9.83,0,15.32.87,15.32,13.58,0,5.78-3.18,9-10.41,9H540.62c0,8.38,2,10.12,7.51,10.12,6.65,0,11.85,0,17.34-.87v4.91c-5.78,1.73-12.72,2-18.79,2C536.86,82.64,534,77.73,534,63,534,46.23,538.88,43.91,551,43.91ZM555.36,61q4.34,0,4.34-3.47c0-6.94-1.16-7.51-8.38-7.51-7.51,0-10.41,0-10.41,11Z"/><path class="cls-3" d="M573.86,44.2h5.2l1.73,4.91c4-2.6,7.8-5.2,13.58-5.2,2,0,4.34,0,5.2.58v6.65a28.22,28.22,0,0,0-5.49-.29c-5.49,0-8.38,1.16-13.3,4.34v28h-6.65v-39Z"/><path class="cls-3" d="M604.21,53.74c0-6.07,2.6-9.83,10.12-9.83,4.91,0,15.9.58,19.65,1.45V50H615.19c-4,0-4.34,1.45-4.34,3.76v2.89c0,3.47,1.73,3.76,4.34,3.76h11c6.65,0,9.83,4,9.83,9.54v3.76c0,7.8-4.91,9.54-9.54,9.54s-17.92-.87-20.52-1.45V77.15h19.65a3.28,3.28,0,0,0,3.76-3.47V70.5c0-2.31-.87-3.47-3.76-3.47h-11c-6.94,0-10.41-2.31-10.41-9.83V53.74Z"/><path class="cls-3" d="M131.21,18.8H28.05c-5.68,0-10.41,3.79-10.41,8.52V132.69c0,4.73,4.73,8.52,10.41,8.52H131.21c5.68,0,10.41-3.79,10.41-8.52V27.31C141.94,22.58,137.21,18.8,131.21,18.8Z"/><path class="cls-4" d="M107.24,53.5S100.3,44.67,86.1,43.4H37.2V59.18H49.82l-.32,52.05h18V58.86H86.1s7.57.95,10.41,6.63a26.87,26.87,0,0,1,0,23.35s-2.84,5.36-8.83,6l-14.83.32v15.77H85.78a35.77,35.77,0,0,0,12.3-2.52c3.47-1.58,7.57-4.1,9.78-7.57C107.55,100.82,127.11,78.74,107.24,53.5Z"/><path class="cls-2" d="M162.38,111.13H154.8v-2.74h18.46v2.74h-7.62v22.2h-3.26Z"/><path class="cls-2" d="M189.06,124.23c0,6.62-4.59,9.51-8.92,9.51-4.85,0-8.58-3.55-8.58-9.21,0-6,3.92-9.51,8.88-9.51C185.58,115,189.06,118.75,189.06,124.23Zm-14.21.18c0,3.92,2.26,6.88,5.44,6.88s5.44-2.92,5.44-7c0-3-1.52-6.88-5.37-6.88S174.85,121,174.85,124.42Z"/><path class="cls-2" d="M192.68,121.27c0-2.29-.07-4.14-.15-5.85h2.92l.15,3.07h.07A7,7,0,0,1,202,115c4.33,0,7.59,3.66,7.59,9.1,0,6.44-3.92,9.62-8.14,9.62a6.28,6.28,0,0,1-5.51-2.81h-.07v9.73h-3.22ZM195.9,126a7.32,7.32,0,0,0,.15,1.33,5,5,0,0,0,4.88,3.81c3.44,0,5.44-2.81,5.44-6.92,0-3.59-1.89-6.66-5.33-6.66a5.2,5.2,0,0,0-4.92,4,5.26,5.26,0,0,0-.22,1.33Z"/><path class="cls-2" d="M224.9,108.39v14.76c0,5.59,2.48,8,5.81,8,3.7,0,6.07-2.44,6.07-8V108.39H240v14.54c0,7.66-4,10.8-9.44,10.8-5.11,0-9-2.92-9-10.66V108.39Z"/><path class="cls-2" d="M248.32,108.39v24.94H245.1V108.39Z"/><path class="cls-2" d="M250.52,134.81,260.85,108h2.52L253,134.81Z"/><path class="cls-2" d="M268.92,108.39v14.76c0,5.59,2.48,8,5.81,8,3.7,0,6.07-2.44,6.07-8V108.39h3.26v14.54c0,7.66-4,10.8-9.44,10.8-5.11,0-9-2.92-9-10.66V108.39Z"/><path class="cls-2" d="M302.35,133.33l-3.18-5.51c-1.29-2.11-2.11-3.48-2.89-4.92h-.07c-.7,1.44-1.41,2.78-2.7,5l-3,5.48h-3.7l7.62-12.62-7.33-12.32h3.74l3.29,5.85c.93,1.63,1.63,2.89,2.29,4.22h.11c.7-1.48,1.33-2.63,2.26-4.22l3.4-5.85h3.7l-7.59,12.14,7.77,12.8Z"/><path class="cls-2" d="M317.66,108.73a46.1,46.1,0,0,1,6.84-.52c4.63,0,7.92,1.07,10.1,3.11s3.51,4.92,3.51,9-1.26,7.4-3.59,9.69-6.18,3.59-11,3.59a51.8,51.8,0,0,1-5.85-.3Zm3.22,22.05a20.4,20.4,0,0,0,3.26.18c6.88,0,10.62-3.85,10.62-10.58,0-5.88-3.29-9.62-10.1-9.62a18.26,18.26,0,0,0-3.77.33Z"/><path class="cls-2" d="M343.74,125c.07,4.4,2.88,6.22,6.14,6.22a11.77,11.77,0,0,0,5-.92l.55,2.33a14.49,14.49,0,0,1-6,1.11c-5.51,0-8.81-3.63-8.81-9S343.82,115,349,115c5.85,0,7.4,5.14,7.4,8.44a12.26,12.26,0,0,1-.11,1.52Zm9.54-2.33c0-2.07-.85-5.29-4.51-5.29-3.29,0-4.74,3-5,5.29Z"/><path class="cls-2" d="M359.39,130a8.53,8.53,0,0,0,4.29,1.29c2.37,0,3.48-1.18,3.48-2.66s-.92-2.41-3.33-3.29c-3.22-1.15-4.74-2.92-4.74-5.07,0-2.89,2.33-5.25,6.18-5.25a8.94,8.94,0,0,1,4.4,1.11l-.81,2.37a7,7,0,0,0-3.66-1c-1.92,0-3,1.11-3,2.44s1.07,2.15,3.4,3c3.11,1.18,4.7,2.74,4.7,5.4,0,3.14-2.44,5.37-6.7,5.37a10.23,10.23,0,0,1-5-1.22Z"/><path class="cls-2" d="M377.32,110.39a2,2,0,0,1-4,0,2,2,0,0,1,2-2A1.93,1.93,0,0,1,377.32,110.39Zm-3.62,22.94V115.42h3.26v17.91Z"/><path class="cls-2" d="M397.17,115.42c-.07,1.29-.15,2.74-.15,4.92v10.4c0,4.11-.81,6.62-2.55,8.18a9.49,9.49,0,0,1-6.51,2.15,11.57,11.57,0,0,1-6-1.48l.81-2.48a10.1,10.1,0,0,0,5.25,1.41c3.33,0,5.77-1.74,5.77-6.25v-2h-.07a6.4,6.4,0,0,1-5.7,3c-4.44,0-7.62-3.77-7.62-8.73,0-6.07,4-9.51,8.07-9.51a6,6,0,0,1,5.59,3.11h.07l.15-2.7Zm-3.37,7.07a4.63,4.63,0,0,0-.19-1.48,4.69,4.69,0,0,0-4.55-3.44c-3.11,0-5.33,2.63-5.33,6.77,0,3.51,1.78,6.44,5.29,6.44a4.76,4.76,0,0,0,4.51-3.33,5.64,5.64,0,0,0,.26-1.74Z"/><path class="cls-2" d="M401.77,120.27c0-1.85,0-3.37-.15-4.85h2.89l.19,3h.07a6.58,6.58,0,0,1,5.92-3.37c2.48,0,6.33,1.48,6.33,7.62v10.69h-3.26V123c0-2.89-1.07-5.29-4.14-5.29a4.78,4.78,0,0,0-4.59,4.85v10.77h-3.26Z"/><path class="cls-2" d="M425.23,110.39a2,2,0,0,1-4,0,2,2,0,0,1,2-2A1.93,1.93,0,0,1,425.23,110.39Zm-3.62,22.94V115.42h3.26v17.91Z"/><path class="cls-2" d="M429.55,120.27c0-1.85,0-3.37-.15-4.85h2.89l.18,3h.07a6.59,6.59,0,0,1,5.92-3.37c2.48,0,6.33,1.48,6.33,7.62v10.69h-3.26V123c0-2.89-1.07-5.29-4.14-5.29a4.78,4.78,0,0,0-4.59,4.85v10.77h-3.26Z"/><path class="cls-2" d="M465,115.42c-.07,1.29-.15,2.74-.15,4.92v10.4c0,4.11-.81,6.62-2.55,8.18a9.49,9.49,0,0,1-6.51,2.15,11.56,11.56,0,0,1-6-1.48l.81-2.48a10.09,10.09,0,0,0,5.25,1.41c3.33,0,5.77-1.74,5.77-6.25v-2h-.07a6.39,6.39,0,0,1-5.7,3c-4.44,0-7.62-3.77-7.62-8.73,0-6.07,4-9.51,8.07-9.51a6,6,0,0,1,5.59,3.11H462l.15-2.7Zm-3.37,7.07a4.76,4.76,0,0,0-4.74-4.92c-3.11,0-5.33,2.63-5.33,6.77,0,3.51,1.78,6.44,5.29,6.44a4.76,4.76,0,0,0,4.52-3.33,5.64,5.64,0,0,0,.26-1.74Z"/><path class="cls-2" d="M495.64,132.52a16,16,0,0,1-6.59,1.18c-7,0-12.32-4.44-12.32-12.62,0-7.81,5.29-13.1,13-13.1a13.36,13.36,0,0,1,5.92,1.11l-.78,2.63a11.73,11.73,0,0,0-5-1c-5.85,0-9.73,3.74-9.73,10.29,0,6.1,3.52,10,9.58,10a12.89,12.89,0,0,0,5.25-1Z"/><path class="cls-2" d="M514.67,124.23c0,6.62-4.59,9.51-8.92,9.51-4.85,0-8.58-3.55-8.58-9.21,0-6,3.92-9.51,8.88-9.51C511.19,115,514.67,118.75,514.67,124.23Zm-14.21.18c0,3.92,2.26,6.88,5.44,6.88s5.44-2.92,5.44-7c0-3-1.52-6.88-5.37-6.88S500.46,121,500.46,124.42Z"/><path class="cls-2" d="M518.28,120.27c0-1.85,0-3.37-.15-4.85H521l.15,2.89h.11a6.17,6.17,0,0,1,5.63-3.29,5.3,5.3,0,0,1,5.07,3.59H532a7.4,7.4,0,0,1,2-2.33,6.11,6.11,0,0,1,4-1.26c2.37,0,5.88,1.55,5.88,7.77v10.55h-3.18V123.19c0-3.44-1.26-5.51-3.89-5.51a4.21,4.21,0,0,0-3.85,3,5.34,5.34,0,0,0-.26,1.63v11.06h-3.18V122.6c0-2.85-1.26-4.92-3.74-4.92a4.86,4.86,0,0,0-4.29,4.85v10.8h-3.18Z"/><path class="cls-2" d="M548.47,121.27c0-2.29-.07-4.14-.15-5.85h2.92l.15,3.07h.07a7,7,0,0,1,6.36-3.48c4.33,0,7.59,3.66,7.59,9.1,0,6.44-3.92,9.62-8.14,9.62a6.28,6.28,0,0,1-5.51-2.81h-.07v9.73h-3.22Zm3.22,4.77a7.32,7.32,0,0,0,.15,1.33,5,5,0,0,0,4.88,3.81c3.44,0,5.44-2.81,5.44-6.92,0-3.59-1.89-6.66-5.33-6.66a5.2,5.2,0,0,0-4.92,4,5.26,5.26,0,0,0-.22,1.33Z"/><path class="cls-2" d="M579.07,133.33l-.26-2.26h-.11a6.67,6.67,0,0,1-5.48,2.66,5.1,5.1,0,0,1-5.48-5.14c0-4.33,3.85-6.7,10.77-6.66v-.37c0-1.48-.41-4.14-4.07-4.14a8.93,8.93,0,0,0-4.66,1.33l-.74-2.15a11.12,11.12,0,0,1,5.88-1.59c5.48,0,6.81,3.74,6.81,7.33V129a25.36,25.36,0,0,0,.29,4.29Zm-.48-9.14c-3.55-.07-7.58.55-7.58,4a2.88,2.88,0,0,0,3.07,3.11,4.46,4.46,0,0,0,4.33-3,3.45,3.45,0,0,0,.18-1Z"/><path class="cls-2" d="M586.31,120.27c0-1.85,0-3.37-.15-4.85H589l.18,3h.07a6.59,6.59,0,0,1,5.92-3.37c2.48,0,6.33,1.48,6.33,7.62v10.69H598.3V123c0-2.89-1.07-5.29-4.14-5.29a4.78,4.78,0,0,0-4.59,4.85v10.77h-3.26Z"/><path class="cls-2" d="M609.77,110.39a2,2,0,0,1-4,0,2,2,0,0,1,2-2A1.93,1.93,0,0,1,609.77,110.39Zm-3.63,22.94V115.42h3.26v17.91Z"/><path class="cls-2" d="M616.08,125c.07,4.4,2.88,6.22,6.14,6.22a11.77,11.77,0,0,0,5-.92l.55,2.33a14.49,14.49,0,0,1-6,1.11c-5.51,0-8.81-3.63-8.81-9s3.18-9.66,8.4-9.66c5.85,0,7.4,5.14,7.4,8.44a12.26,12.26,0,0,1-.11,1.52Zm9.54-2.33c0-2.07-.85-5.29-4.51-5.29-3.29,0-4.74,3-5,5.29Z"/><path class="cls-2" d="M631.73,130A8.53,8.53,0,0,0,636,131.3c2.37,0,3.48-1.18,3.48-2.66s-.92-2.41-3.33-3.29c-3.22-1.15-4.74-2.92-4.74-5.07,0-2.89,2.33-5.25,6.18-5.25a8.94,8.94,0,0,1,4.4,1.11l-.81,2.37a7,7,0,0,0-3.66-1c-1.92,0-3,1.11-3,2.44s1.07,2.15,3.4,3c3.11,1.18,4.7,2.74,4.7,5.4,0,3.14-2.44,5.37-6.7,5.37a10.23,10.23,0,0,1-5-1.22Z"/></g></g></svg>